<?xml version="1.0" encoding="utf-8"?>
<!-- Generator: Adobe Illustrator 19.0.0, SVG Export Plug-In . SVG Version: 6.00 Build 0)  -->
<svg version="1.1" id="Livello_1" xmlns="http://www.w3.org/2000/svg" xmlns:xlink="http://www.w3.org/1999/xlink" x="0px" y="0px"
	 viewBox="0 0 566.9 368.5" style="enable-background:new 0 0 566.9 368.5;" xml:space="preserve">
<style type="text/css">
	.st0{fill:#0C5494;}
	.st1{fill:#17965D;}
	.st2{fill:#FCD045;}
	.st3{fill:#333333;}
</style>
<g id="XMLID_4_">
	<g id="XMLID_596_">
		<g id="XMLID_603_">
			<path id="XMLID_3_" class="st0" d="M69.5,81c-37.1,7.5-65.1,40.3-65.1,79.6c0,44.9,36.4,81.2,81.2,81.2
				c21.6,0,41.2-8.4,55.8-22.2c-5.2,1.1-10.7,1.6-16.2,1.6C80.4,221.4,44,185,44,140.1C44,116.9,53.8,95.8,69.5,81z"/>
			<path id="XMLID_2_" class="st1" d="M69.5,81c5.2-1.1,10.7-1.6,16.2-1.6c44.9,0,81.2,36.4,81.2,81.2c0,23.3-9.8,44.3-25.5,59.1
				c10-2,19.3-5.9,27.6-11.2l37.4,51V140.4h0c0-0.1,0-0.2,0-0.3c0-44.9-36.4-81.2-81.2-81.2C103.7,58.9,84.1,67.3,69.5,81z"/>
			<path id="XMLID_1_" class="st2" d="M211.7,271.3c-10.6,0-19.1,8.6-19.1,19.1c0,10.6,8.6,19.1,19.1,19.1s19.1-8.6,19.1-19.1
				C230.8,279.9,222.3,271.3,211.7,271.3z"/>
		</g>
		<g id="XMLID_602_">
		</g>
	</g>
	<g id="XMLID_587_">
		<path id="XMLID_594_" class="st3" d="M318.2,121.2c-0.6,0.6-1.5,0.9-2.5,0.9h-14.3c-0.9,0-1.4,0.5-1.4,1.4V163
			c0,6.2,2.6,9.2,7.8,9.2h4.4c1.1,0,1.9,0.3,2.5,0.9c0.6,0.6,0.9,1.5,0.9,2.5v30c0,2.2-1.2,3.4-3.5,3.7l-14.1,0.2
			c-13.4,0-23.3-2-29.8-6c-6.5-4-9.8-11.6-9.9-22.8v-57.2c0-0.9-0.5-1.4-1.4-1.4h-9.2c-1.1,0-1.9-0.3-2.5-0.9
			c-0.6-0.6-0.9-1.5-0.9-2.5V93.3c0-1.1,0.3-1.9,0.9-2.5c0.6-0.6,1.5-0.9,2.5-0.9h9.2c0.9,0,1.4-0.5,1.4-1.4V62.4
			c0-1.1,0.3-1.9,0.9-2.5c0.6-0.6,1.5-0.9,2.5-0.9h34.6c1.1,0,1.9,0.3,2.5,0.9c0.6,0.6,0.9,1.5,0.9,2.5v26.1c0,0.9,0.5,1.4,1.4,1.4
			h14.3c1.1,0,1.9,0.3,2.5,0.9c0.6,0.6,0.9,1.5,0.9,2.5v25.4C319.1,119.7,318.8,120.6,318.2,121.2z"/>
		<path id="XMLID_591_" class="st3" d="M344.6,200.3c-9.3-7.5-14.8-17.9-16.5-31.2c-0.8-6.2-1.2-12.7-1.2-19.6
			c0-8,0.5-14.8,1.4-20.5c1.8-12.6,7.4-22.6,16.7-30c9.3-7.4,21.4-11.1,36.3-11.1c14.8,0,26.8,3.7,36,11.1
			c9.2,7.4,14.8,17.3,16.6,29.8c0.9,5.7,1.4,12.5,1.4,20.5c0,5.7-0.3,12.1-0.9,19.2c-1.7,13.5-7.2,24.1-16.4,31.7
			c-9.2,7.6-21.5,11.4-36.9,11.4C366.1,211.7,353.9,207.9,344.6,200.3z M388,171.5c1.8-2,2.9-4.7,3.3-8.1c0.3-3.1,0.5-7.7,0.5-13.8
			c0-3.2-0.2-7.9-0.5-14.1c-0.6-3.2-1.8-5.8-3.5-7.6c-1.7-1.8-3.9-2.8-6.7-2.8s-5,0.9-6.8,2.8c-1.8,1.8-2.9,4.4-3.3,7.6
			c-0.3,3.1-0.5,7.8-0.5,14.1c0,6.2,0.2,10.8,0.5,13.8c0.5,3.4,1.6,6.1,3.3,8.1c1.8,2,4,3,6.8,3S386.2,173.5,388,171.5z"/>
		<path id="XMLID_588_" class="st3" d="M552.8,152.4c0,4.9-0.1,8.9-0.3,11.9c-0.2,3-0.7,6.3-1.5,10c-2.3,11.7-6.5,20.8-12.5,27.5
			c-6,6.6-13.9,9.9-23.8,9.9c-4.6,0-8.8-0.5-12.6-1.5c-3.8-1-7.2-3-10.3-5.9c-0.5-0.5-0.8-0.7-1.2-0.6c-0.3,0.1-0.5,0.4-0.5,1v43.1
			c0,1.1-0.3,1.9-0.9,2.5c-0.6,0.6-1.5,0.9-2.5,0.9h-36.5c-1.1,0-1.9-0.3-2.5-0.9c-0.6-0.6-0.9-1.5-0.9-2.5V93.3
			c0-1.1,0.3-1.9,0.9-2.5c0.6-0.6,1.5-0.9,2.5-0.9h36.5c1.1,0,1.9,0.3,2.5,0.9c0.6,0.6,0.9,1.5,0.9,2.5v1.8c0,0.6,0.2,1,0.5,1.2
			c0.3,0.2,0.7,0,1.2-0.5c5.4-5.2,13-7.8,22.8-7.8c9.7,0,17.5,3.5,23.5,10.5c6,7,10.2,16.7,12.7,29
			C552.2,133.7,552.8,142.1,552.8,152.4z M509.7,157.2l-0.2-7.2c0-6.2-0.2-10.8-0.5-13.8c-0.3-3.2-1.3-5.9-2.9-8
			c-1.6-2.1-3.7-3.1-6.1-3.1c-2.5,0-4.5,1-6.1,3c-1.6,2-2.7,4.7-3.1,8.1c-0.3,2.5-0.5,4.3-0.5,5.5v8.3c0,6.3,0.2,11,0.5,14.1
			c0.3,3.1,1.3,5.6,3,7.5c1.7,1.9,3.8,2.9,6.2,2.9c2.3,0,4.2-0.9,5.8-2.8c1.5-1.8,2.6-4.4,3.2-7.6
			C509.4,161.8,509.7,159.5,509.7,157.2z"/>
	</g>
	<g id="XMLID_586_">
		<path id="XMLID_675_" class="st3" d="M255.6,287c-0.1,0.1-0.2,0.1-0.3,0.1h-1.9c-0.1,0-0.2,0.1-0.2,0.2v5.4c0,0.8,0.4,1.3,1.1,1.3
			h0.6c0.1,0,0.3,0,0.3,0.1c0.1,0.1,0.1,0.2,0.1,0.3v4.1c0,0.3-0.2,0.5-0.5,0.5l-1.9,0c-1.8,0-3.2-0.3-4-0.8
			c-0.9-0.5-1.3-1.6-1.3-3.1v-7.8c0-0.1-0.1-0.2-0.2-0.2H246c-0.1,0-0.3,0-0.3-0.1c-0.1-0.1-0.1-0.2-0.1-0.3v-3.5
			c0-0.1,0-0.3,0.1-0.3c0.1-0.1,0.2-0.1,0.3-0.1h1.3c0.1,0,0.2-0.1,0.2-0.2V279c0-0.1,0-0.3,0.1-0.3c0.1-0.1,0.2-0.1,0.3-0.1h4.7
			c0.1,0,0.3,0,0.3,0.1c0.1,0.1,0.1,0.2,0.1,0.3v3.5c0,0.1,0.1,0.2,0.2,0.2h1.9c0.1,0,0.3,0,0.3,0.1c0.1,0.1,0.1,0.2,0.1,0.3v3.5
			C255.7,286.8,255.7,286.9,255.6,287z"/>
		<path id="XMLID_673_" class="st3" d="M265.5,282.9c0.1-0.1,0.2-0.1,0.3-0.1h5c0.1,0,0.3,0,0.3,0.1c0.1,0.1,0.1,0.2,0.1,0.3v15.4
			c0,0.1,0,0.3-0.1,0.3c-0.1,0.1-0.2,0.1-0.3,0.1h-5c-0.1,0-0.3,0-0.3-0.1c-0.1-0.1-0.1-0.2-0.1-0.3V298c0-0.1,0-0.1-0.1-0.1
			c0,0-0.1,0-0.2,0.1c-0.7,0.9-1.8,1.4-3.3,1.4c-1.4,0-2.6-0.5-3.5-1.4c-0.9-0.9-1.3-2.2-1.3-4v-10.8c0-0.1,0-0.3,0.1-0.3
			c0.1-0.1,0.2-0.1,0.3-0.1h5c0.1,0,0.3,0,0.3,0.1c0.1,0.1,0.1,0.2,0.1,0.3v9.5c0,0.5,0.1,0.9,0.3,1.1c0.2,0.3,0.5,0.4,0.9,0.4
			c0.4,0,0.7-0.1,0.9-0.4c0.2-0.3,0.3-0.7,0.3-1.1v-9.5C265.3,283.1,265.4,283,265.5,282.9z"/>
		<path id="XMLID_671_" class="st3" d="M282.4,287c-0.1,0.1-0.2,0.1-0.3,0.1h-1.9c-0.1,0-0.2,0.1-0.2,0.2v5.4c0,0.8,0.4,1.3,1.1,1.3
			h0.6c0.1,0,0.3,0,0.3,0.1c0.1,0.1,0.1,0.2,0.1,0.3v4.1c0,0.3-0.2,0.5-0.5,0.5l-1.9,0c-1.8,0-3.2-0.3-4-0.8
			c-0.9-0.5-1.3-1.6-1.3-3.1v-7.8c0-0.1-0.1-0.2-0.2-0.2h-1.3c-0.1,0-0.3,0-0.3-0.1c-0.1-0.1-0.1-0.2-0.1-0.3v-3.5
			c0-0.1,0-0.3,0.1-0.3c0.1-0.1,0.2-0.1,0.3-0.1h1.3c0.1,0,0.2-0.1,0.2-0.2V279c0-0.1,0-0.3,0.1-0.3c0.1-0.1,0.2-0.1,0.3-0.1h4.7
			c0.1,0,0.3,0,0.3,0.1c0.1,0.1,0.1,0.2,0.1,0.3v3.5c0,0.1,0.1,0.2,0.2,0.2h1.9c0.1,0,0.3,0,0.3,0.1c0.1,0.1,0.1,0.2,0.1,0.3v3.5
			C282.6,286.8,282.5,286.9,282.4,287z"/>
		<path id="XMLID_668_" class="st3" d="M286,297.8c-1.3-1-2-2.4-2.2-4.2c-0.1-0.8-0.2-1.7-0.2-2.7c0-1.1,0.1-2,0.2-2.8
			c0.3-1.7,1-3.1,2.3-4.1c1.3-1,2.9-1.5,4.9-1.5c2,0,3.6,0.5,4.9,1.5c1.3,1,2,2.4,2.3,4c0.1,0.8,0.2,1.7,0.2,2.8
			c0,0.8,0,1.6-0.1,2.6c-0.2,1.8-1,3.3-2.2,4.3c-1.3,1-2.9,1.6-5,1.6C289,299.3,287.3,298.8,286,297.8z M291.9,293.9
			c0.2-0.3,0.4-0.6,0.5-1.1c0-0.4,0.1-1,0.1-1.9c0-0.4,0-1.1-0.1-1.9c-0.1-0.4-0.2-0.8-0.5-1c-0.2-0.3-0.5-0.4-0.9-0.4
			c-0.4,0-0.7,0.1-0.9,0.4c-0.2,0.3-0.4,0.6-0.5,1c0,0.4-0.1,1.1-0.1,1.9c0,0.8,0,1.5,0.1,1.9c0.1,0.5,0.2,0.8,0.5,1.1
			c0.2,0.3,0.5,0.4,0.9,0.4C291.4,294.3,291.7,294.1,291.9,293.9z"/>
		<path id="XMLID_666_" class="st3" d="M310.2,282.9c0.2,0.1,0.3,0.3,0.2,0.6l-0.8,4.9c0,0.2-0.1,0.3-0.2,0.3c-0.1,0-0.2,0-0.4,0
			c-0.3-0.1-0.5-0.1-0.9-0.1c-0.4,0-0.7,0-1,0.1c-0.4,0.1-0.8,0.4-1.1,0.7c-0.3,0.3-0.4,0.7-0.4,1.2v8c0,0.1,0,0.3-0.1,0.3
			c-0.1,0.1-0.2,0.1-0.3,0.1h-5c-0.1,0-0.3,0-0.3-0.1c-0.1-0.1-0.1-0.2-0.1-0.3v-15.3c0-0.1,0-0.3,0.1-0.3c0.1-0.1,0.2-0.1,0.3-0.1
			h5c0.1,0,0.3,0,0.3,0.1c0.1,0.1,0.1,0.2,0.1,0.3v0.7c0,0.1,0,0.1,0.1,0.2c0,0,0.1,0,0.1-0.1c0.7-1,1.6-1.5,2.7-1.5
			C309.3,282.5,309.8,282.6,310.2,282.9z"/>
		<path id="XMLID_663_" class="st3" d="M312.3,281.2c-0.6-0.6-0.9-1.4-0.9-2.4c0-1,0.3-1.8,0.9-2.4c0.6-0.6,1.4-0.9,2.4-0.9
			c1,0,1.8,0.3,2.4,0.9c0.6,0.6,0.9,1.4,0.9,2.4c0,1-0.3,1.8-0.9,2.4c-0.6,0.6-1.4,0.9-2.4,0.9C313.7,282.1,312.9,281.8,312.3,281.2
			z M311.9,298.9c-0.1-0.1-0.1-0.2-0.1-0.3v-15.4c0-0.1,0-0.3,0.1-0.3c0.1-0.1,0.2-0.1,0.3-0.1h5c0.1,0,0.3,0,0.3,0.1
			c0.1,0.1,0.1,0.2,0.1,0.3v15.4c0,0.1,0,0.3-0.1,0.3c-0.1,0.1-0.2,0.1-0.3,0.1h-5C312.1,299.1,311.9,299,311.9,298.9z"/>
		<path id="XMLID_661_" class="st3" d="M332.5,284c0.9,1,1.3,2.4,1.3,4.2v10.4c0,0.1,0,0.3-0.1,0.3c-0.1,0.1-0.2,0.1-0.3,0.1h-5
			c-0.1,0-0.3,0-0.3-0.1c-0.1-0.1-0.1-0.2-0.1-0.3v-9.5c0-0.5-0.1-0.8-0.3-1.1c-0.2-0.3-0.5-0.4-0.9-0.4c-0.4,0-0.7,0.1-0.9,0.4
			c-0.2,0.3-0.3,0.6-0.3,1.1v9.5c0,0.1,0,0.3-0.1,0.3c-0.1,0.1-0.2,0.1-0.3,0.1h-5c-0.1,0-0.3,0-0.3-0.1c-0.1-0.1-0.1-0.2-0.1-0.3
			v-15.4c0-0.1,0-0.3,0.1-0.3c0.1-0.1,0.2-0.1,0.3-0.1h5c0.1,0,0.3,0,0.3,0.1c0.1,0.1,0.1,0.2,0.1,0.3v0.8c0,0.1,0,0.1,0.1,0.1
			c0.1,0,0.1,0,0.2-0.1c0.7-1,1.7-1.5,3.1-1.5C330.4,282.5,331.6,283,332.5,284z"/>
		<path id="XMLID_658_" class="st3" d="M344.1,282.9c0.1-0.1,0.2-0.1,0.3-0.1h5c0.1,0,0.3,0,0.3,0.1c0.1,0.1,0.1,0.2,0.1,0.3v14.2
			c0,2.7-0.8,4.7-2.3,6c-1.5,1.3-3.7,1.9-6.5,1.9c-0.7,0-1.5-0.1-2.4-0.2c-0.3,0-0.4-0.2-0.4-0.5l0.1-4.2c0-0.3,0.2-0.5,0.5-0.4
			c0.6,0.1,1.1,0.1,1.7,0.1c1,0,1.8-0.2,2.4-0.5c0.6-0.4,0.9-0.9,1.1-1.7v0c0-0.1,0-0.1-0.1-0.2c-0.1,0-0.1,0-0.2,0.1
			c-0.7,0.7-1.6,1-2.8,1c-1.4,0-2.6-0.4-3.5-1.1c-0.9-0.8-1.5-2-1.8-3.6l-0.1-0.2c-0.1-0.5-0.2-1.6-0.2-3.2c0-1.6,0.1-2.7,0.3-3.3
			l0.1-0.2c0.3-1.5,0.8-2.7,1.7-3.5c0.9-0.8,2-1.3,3.5-1.3c1.3,0,2.3,0.4,3,1.3c0,0.1,0.1,0.1,0.1,0.1c0.1,0,0.1-0.1,0.1-0.2v-0.6
			C344,283.1,344,283,344.1,282.9z M343.8,293.1c0.1-0.6,0.2-1.3,0.2-2.3c0-0.9-0.1-1.7-0.2-2.2c-0.2-0.7-0.6-1.1-1.3-1.1
			c-0.3,0-0.5,0.1-0.7,0.3c-0.2,0.2-0.3,0.4-0.4,0.8c-0.2,0.6-0.3,1.4-0.3,2.3c0,0.8,0.1,1.5,0.2,2.2c0.2,0.7,0.6,1.1,1.3,1.1
			C343.3,294.1,343.7,293.8,343.8,293.1z"/>
		<path id="XMLID_655_" class="st3" d="M360.1,297.8c-1.3-1-2-2.4-2.2-4.2c-0.1-0.8-0.2-1.7-0.2-2.7c0-1.1,0.1-2,0.2-2.8
			c0.3-1.7,1-3.1,2.3-4.1c1.3-1,2.9-1.5,4.9-1.5c2,0,3.6,0.5,4.9,1.5c1.3,1,2,2.4,2.3,4c0.1,0.8,0.2,1.7,0.2,2.8
			c0,0.8,0,1.6-0.1,2.6c-0.2,1.8-1,3.3-2.2,4.3c-1.3,1-2.9,1.6-5,1.6C363,299.3,361.3,298.8,360.1,297.8z M366,293.9
			c0.2-0.3,0.4-0.6,0.5-1.1c0-0.4,0.1-1,0.1-1.9c0-0.4,0-1.1-0.1-1.9c-0.1-0.4-0.2-0.8-0.5-1c-0.2-0.3-0.5-0.4-0.9-0.4
			c-0.4,0-0.7,0.1-0.9,0.4c-0.2,0.3-0.4,0.6-0.5,1c0,0.4-0.1,1.1-0.1,1.9c0,0.8,0,1.5,0.1,1.9c0.1,0.5,0.2,0.8,0.5,1.1
			c0.2,0.3,0.5,0.4,0.9,0.4C365.4,294.3,365.7,294.1,366,293.9z"/>
		<path id="XMLID_653_" class="st3" d="M386.9,284c0.9,1,1.3,2.4,1.3,4.2v10.4c0,0.1,0,0.3-0.1,0.3c-0.1,0.1-0.2,0.1-0.3,0.1h-5
			c-0.1,0-0.3,0-0.3-0.1c-0.1-0.1-0.1-0.2-0.1-0.3v-9.5c0-0.5-0.1-0.8-0.3-1.1c-0.2-0.3-0.5-0.4-0.9-0.4c-0.4,0-0.7,0.1-0.9,0.4
			c-0.2,0.3-0.3,0.6-0.3,1.1v9.5c0,0.1,0,0.3-0.1,0.3c-0.1,0.1-0.2,0.1-0.3,0.1h-5c-0.1,0-0.3,0-0.3-0.1c-0.1-0.1-0.1-0.2-0.1-0.3
			v-15.4c0-0.1,0-0.3,0.1-0.3c0.1-0.1,0.2-0.1,0.3-0.1h5c0.1,0,0.3,0,0.3,0.1c0.1,0.1,0.1,0.2,0.1,0.3v0.8c0,0.1,0,0.1,0.1,0.1
			c0.1,0,0.1,0,0.2-0.1c0.7-1,1.7-1.5,3.1-1.5C384.8,282.5,386,283,386.9,284z"/>
		<path id="XMLID_651_" class="st3" d="M390,298.9c-0.1-0.1-0.1-0.2-0.1-0.3v-21c0-0.1,0-0.3,0.1-0.3c0.1-0.1,0.2-0.1,0.3-0.1h5
			c0.1,0,0.3,0,0.3,0.1c0.1,0.1,0.1,0.2,0.1,0.3v21c0,0.1,0,0.3-0.1,0.3c-0.1,0.1-0.2,0.1-0.3,0.1h-5C390.2,299.1,390,299,390,298.9
			z"/>
		<path id="XMLID_647_" class="st3" d="M398.3,281.2c-0.6-0.6-0.9-1.4-0.9-2.4c0-1,0.3-1.8,0.9-2.4c0.6-0.6,1.4-0.9,2.4-0.9
			c1,0,1.8,0.3,2.4,0.9c0.6,0.6,0.9,1.4,0.9,2.4c0,1-0.3,1.8-0.9,2.4c-0.6,0.6-1.4,0.9-2.4,0.9C399.7,282.1,398.9,281.8,398.3,281.2
			z M397.8,298.9c-0.1-0.1-0.1-0.2-0.1-0.3v-15.4c0-0.1,0-0.3,0.1-0.3c0.1-0.1,0.2-0.1,0.3-0.1h5c0.1,0,0.3,0,0.3,0.1
			c0.1,0.1,0.1,0.2,0.1,0.3v15.4c0,0.1,0,0.3-0.1,0.3c-0.1,0.1-0.2,0.1-0.3,0.1h-5C398,299.1,397.9,299,397.8,298.9z"/>
		<path id="XMLID_644_" class="st3" d="M418.5,284c0.9,1,1.3,2.4,1.3,4.2v10.4c0,0.1,0,0.3-0.1,0.3c-0.1,0.1-0.2,0.1-0.3,0.1h-5
			c-0.1,0-0.3,0-0.3-0.1c-0.1-0.1-0.1-0.2-0.1-0.3v-9.5c0-0.5-0.1-0.8-0.3-1.1c-0.2-0.3-0.5-0.4-0.9-0.4c-0.4,0-0.7,0.1-0.9,0.4
			c-0.2,0.3-0.3,0.6-0.3,1.1v9.5c0,0.1,0,0.3-0.1,0.3c-0.1,0.1-0.2,0.1-0.3,0.1h-5c-0.1,0-0.3,0-0.3-0.1c-0.1-0.1-0.1-0.2-0.1-0.3
			v-15.4c0-0.1,0-0.3,0.1-0.3c0.1-0.1,0.2-0.1,0.3-0.1h5c0.1,0,0.3,0,0.3,0.1c0.1,0.1,0.1,0.2,0.1,0.3v0.8c0,0.1,0,0.1,0.1,0.1
			c0.1,0,0.1,0,0.2-0.1c0.7-1,1.7-1.5,3.1-1.5C416.4,282.5,417.6,283,418.5,284z"/>
		<path id="XMLID_641_" class="st3" d="M430.6,293.4c0.2-0.3,0.4-0.4,0.6-0.3l4.1,0.7c0.2,0,0.3,0.1,0.3,0.2c0.1,0.1,0.1,0.2,0,0.4
			c-0.5,1.5-1.3,2.8-2.5,3.6c-1.2,0.9-2.6,1.3-4.3,1.3c-1.8,0-3.3-0.5-4.5-1.4c-1.2-0.9-2.1-2.1-2.6-3.5c-0.3-1-0.5-2.4-0.5-4
			c0-0.6,0-1.1,0.1-1.7c0.3-2,1-3.5,2.2-4.6c1.2-1.1,2.9-1.6,5.1-1.6c2.2,0,3.9,0.6,5,1.7c1.1,1.1,1.8,2.8,2.1,5
			c0.1,0.9,0.2,1.8,0.2,2.8c0,0.3-0.2,0.5-0.5,0.5h-8.1c-0.1,0-0.2,0.1-0.2,0.2l0.1,0.6c0.1,0.4,0.3,0.6,0.6,0.8
			c0.3,0.2,0.6,0.3,1.1,0.3C429.7,294.3,430.3,294,430.6,293.4z M427.7,287.8c-0.2,0.2-0.3,0.5-0.4,0.9l-0.1,0.5
			c0,0.1,0,0.2,0.2,0.2h2.4c0.1,0,0.2,0,0.2-0.1c0-0.1,0-0.2,0-0.3c0-0.1,0-0.2,0-0.3c-0.2-0.8-0.6-1.1-1.3-1.1
			C428.2,287.5,427.9,287.6,427.7,287.8z"/>
		<path id="XMLID_638_" class="st3" d="M458.1,291.3c0,0.7,0,1.2,0,1.6c0,0.4-0.1,0.9-0.2,1.4c-0.3,1.6-0.9,2.8-1.7,3.7
			c-0.8,0.9-1.9,1.3-3.2,1.3c-0.6,0-1.2-0.1-1.7-0.2c-0.5-0.1-1-0.4-1.4-0.8c-0.1-0.1-0.1-0.1-0.2-0.1c0,0-0.1,0.1-0.1,0.1v5.9
			c0,0.1,0,0.3-0.1,0.3c-0.1,0.1-0.2,0.1-0.3,0.1h-5c-0.1,0-0.3,0-0.3-0.1c-0.1-0.1-0.1-0.2-0.1-0.3v-21c0-0.1,0-0.3,0.1-0.3
			c0.1-0.1,0.2-0.1,0.3-0.1h5c0.1,0,0.3,0,0.3,0.1c0.1,0.1,0.1,0.2,0.1,0.3v0.3c0,0.1,0,0.1,0.1,0.2c0,0,0.1,0,0.2-0.1
			c0.7-0.7,1.8-1.1,3.1-1.1c1.3,0,2.4,0.5,3.2,1.4c0.8,1,1.4,2.3,1.7,3.9C458,288.7,458.1,289.9,458.1,291.3z M452.2,291.9l0-1
			c0-0.8,0-1.5-0.1-1.9c0-0.4-0.2-0.8-0.4-1.1c-0.2-0.3-0.5-0.4-0.8-0.4c-0.3,0-0.6,0.1-0.8,0.4c-0.2,0.3-0.4,0.6-0.4,1.1
			c0,0.3-0.1,0.6-0.1,0.8v1.1c0,0.9,0,1.5,0.1,1.9c0,0.4,0.2,0.8,0.4,1c0.2,0.3,0.5,0.4,0.8,0.4c0.3,0,0.6-0.1,0.8-0.4
			c0.2-0.3,0.4-0.6,0.4-1C452.2,292.5,452.2,292.2,452.2,291.9z"/>
		<path id="XMLID_636_" class="st3" d="M470.1,282.9c0.2,0.1,0.3,0.3,0.2,0.6l-0.8,4.9c0,0.2-0.1,0.3-0.2,0.3c-0.1,0-0.2,0-0.4,0
			c-0.3-0.1-0.5-0.1-0.9-0.1c-0.4,0-0.7,0-1,0.1c-0.4,0.1-0.8,0.4-1.1,0.7c-0.3,0.3-0.4,0.7-0.4,1.2v8c0,0.1,0,0.3-0.1,0.3
			c-0.1,0.1-0.2,0.1-0.3,0.1h-5c-0.1,0-0.3,0-0.3-0.1c-0.1-0.1-0.1-0.2-0.1-0.3v-15.3c0-0.1,0-0.3,0.1-0.3c0.1-0.1,0.2-0.1,0.3-0.1
			h5c0.1,0,0.3,0,0.3,0.1c0.1,0.1,0.1,0.2,0.1,0.3v0.7c0,0.1,0,0.1,0.1,0.2c0,0,0.1,0,0.1-0.1c0.7-1,1.6-1.5,2.7-1.5
			C469.2,282.5,469.7,282.6,470.1,282.9z"/>
		<path id="XMLID_617_" class="st3" d="M473.1,297.8c-1.3-1-2-2.4-2.2-4.2c-0.1-0.8-0.2-1.7-0.2-2.7c0-1.1,0.1-2,0.2-2.8
			c0.3-1.7,1-3.1,2.3-4.1c1.3-1,2.9-1.5,4.9-1.5c2,0,3.6,0.5,4.9,1.5c1.3,1,2,2.4,2.3,4c0.1,0.8,0.2,1.7,0.2,2.8
			c0,0.8,0,1.6-0.1,2.6c-0.2,1.8-1,3.3-2.2,4.3c-1.3,1-2.9,1.6-5,1.6C476,299.3,474.4,298.8,473.1,297.8z M479,293.9
			c0.2-0.3,0.4-0.6,0.5-1.1c0-0.4,0.1-1,0.1-1.9c0-0.4,0-1.1-0.1-1.9c-0.1-0.4-0.2-0.8-0.5-1c-0.2-0.3-0.5-0.4-0.9-0.4
			c-0.4,0-0.7,0.1-0.9,0.4c-0.2,0.3-0.4,0.6-0.5,1c0,0.4-0.1,1.1-0.1,1.9c0,0.8,0,1.5,0.1,1.9c0.1,0.5,0.2,0.8,0.5,1.1
			c0.2,0.3,0.5,0.4,0.9,0.4C478.5,294.3,478.8,294.1,479,293.9z"/>
		<path id="XMLID_614_" class="st3" d="M495.6,282.9c0.1-0.1,0.2-0.1,0.3-0.1h5c0.1,0,0.3,0,0.3,0.1c0.1,0.1,0.1,0.2,0.1,0.3v14.2
			c0,2.7-0.8,4.7-2.3,6c-1.5,1.3-3.7,1.9-6.5,1.9c-0.7,0-1.5-0.1-2.4-0.2c-0.3,0-0.4-0.2-0.4-0.5l0.1-4.2c0-0.3,0.2-0.5,0.5-0.4
			c0.6,0.1,1.1,0.1,1.7,0.1c1,0,1.8-0.2,2.4-0.5c0.6-0.4,0.9-0.9,1.1-1.7v0c0-0.1,0-0.1-0.1-0.2c-0.1,0-0.1,0-0.2,0.1
			c-0.7,0.7-1.6,1-2.8,1c-1.4,0-2.6-0.4-3.5-1.1c-0.9-0.8-1.5-2-1.8-3.6l-0.1-0.2c-0.1-0.5-0.2-1.6-0.2-3.2c0-1.6,0.1-2.7,0.3-3.3
			l0.1-0.2c0.3-1.5,0.8-2.7,1.7-3.5c0.9-0.8,2-1.3,3.5-1.3c1.3,0,2.3,0.4,3,1.3c0,0.1,0.1,0.1,0.1,0.1c0.1,0,0.1-0.1,0.1-0.2v-0.6
			C495.5,283.1,495.5,283,495.6,282.9z M495.3,293.1c0.1-0.6,0.2-1.3,0.2-2.3c0-0.9-0.1-1.7-0.2-2.2c-0.2-0.7-0.6-1.1-1.3-1.1
			c-0.3,0-0.5,0.1-0.7,0.3c-0.2,0.2-0.3,0.4-0.4,0.8c-0.2,0.6-0.3,1.4-0.3,2.3c0,0.8,0.1,1.5,0.2,2.2c0.2,0.7,0.6,1.1,1.3,1.1
			C494.7,294.1,495.1,293.8,495.3,293.1z"/>
		<path id="XMLID_612_" class="st3" d="M513.5,282.9c0.2,0.1,0.3,0.3,0.2,0.6l-0.8,4.9c0,0.2-0.1,0.3-0.2,0.3c-0.1,0-0.2,0-0.4,0
			c-0.3-0.1-0.5-0.1-0.9-0.1c-0.4,0-0.7,0-1,0.1c-0.4,0.1-0.8,0.4-1.1,0.7c-0.3,0.3-0.4,0.7-0.4,1.2v8c0,0.1,0,0.3-0.1,0.3
			c-0.1,0.1-0.2,0.1-0.3,0.1h-5c-0.1,0-0.3,0-0.3-0.1c-0.1-0.1-0.1-0.2-0.1-0.3v-15.3c0-0.1,0-0.3,0.1-0.3c0.1-0.1,0.2-0.1,0.3-0.1
			h5c0.1,0,0.3,0,0.3,0.1c0.1,0.1,0.1,0.2,0.1,0.3v0.7c0,0.1,0,0.1,0.1,0.2c0,0,0.1,0,0.1-0.1c0.7-1,1.6-1.5,2.7-1.5
			C512.5,282.5,513,282.6,513.5,282.9z"/>
		<path id="XMLID_609_" class="st3" d="M525.1,283.2c1.1,0.5,2,1.1,2.6,1.9c0.6,0.8,0.9,1.7,0.9,2.7v10.8c0,0.1,0,0.3-0.1,0.3
			c-0.1,0.1-0.2,0.1-0.3,0.1h-5c-0.1,0-0.3,0-0.3-0.1c-0.1-0.1-0.1-0.2-0.1-0.3v-0.7c0-0.1,0-0.1-0.1-0.2c0,0-0.1,0-0.2,0.1
			c-0.3,0.5-0.8,0.9-1.4,1.1c-0.6,0.2-1.3,0.4-2.2,0.4c-1.4,0-2.6-0.4-3.5-1.1c-0.9-0.7-1.4-2-1.4-3.7c0-1.8,0.5-3.1,1.6-3.9
			c1.1-0.7,2.7-1.1,4.9-1.1h2c0.1,0,0.2-0.1,0.2-0.2v-0.6c0-0.4-0.1-0.6-0.4-0.9c-0.2-0.2-0.6-0.3-1-0.3c-0.3,0-0.5,0.1-0.7,0.2
			c-0.2,0.1-0.4,0.3-0.5,0.5c-0.1,0.1-0.1,0.3-0.2,0.3c-0.1,0.1-0.2,0.1-0.3,0.1l-5-0.3c-0.3,0-0.5-0.2-0.5-0.4c0.1-1,0.4-2,1-2.8
			c0.6-0.8,1.5-1.4,2.5-1.9c1.1-0.4,2.3-0.7,3.6-0.7C522.7,282.5,524,282.7,525.1,283.2z M522.3,294.8c0.3-0.3,0.5-0.6,0.5-1v-0.6
			c0-0.1-0.1-0.2-0.2-0.2h-1.1c-0.5,0-0.8,0.1-1.1,0.3c-0.3,0.2-0.4,0.5-0.4,0.8c0,0.3,0.1,0.6,0.3,0.8c0.2,0.2,0.5,0.3,0.8,0.3
			C521.6,295.1,522,295,522.3,294.8z"/>
		<path id="XMLID_607_" class="st3" d="M551.6,284c0.8,1,1.2,2.4,1.2,4.2v10.4c0,0.1,0,0.3-0.1,0.3c-0.1,0.1-0.2,0.1-0.3,0.1h-5
			c-0.1,0-0.3,0-0.3-0.1c-0.1-0.1-0.1-0.2-0.1-0.3v-9.5c0-0.5-0.1-0.9-0.3-1.1c-0.2-0.3-0.5-0.4-0.8-0.4c-0.4,0-0.6,0.1-0.9,0.4
			c-0.2,0.3-0.3,0.7-0.3,1.1v9.5c0,0.1,0,0.3-0.1,0.3c-0.1,0.1-0.2,0.1-0.3,0.1h-5c-0.1,0-0.3,0-0.3-0.1c-0.1-0.1-0.1-0.2-0.1-0.3
			v-9.5c0-0.5-0.1-0.9-0.3-1.1c-0.2-0.3-0.5-0.4-0.9-0.4c-0.3,0-0.5,0.1-0.8,0.3c-0.2,0.2-0.4,0.4-0.4,0.8c0,0.1,0,0.1,0,0.3v9.8
			c0,0.1,0,0.3-0.1,0.3c-0.1,0.1-0.2,0.1-0.3,0.1h-5c-0.1,0-0.3,0-0.3-0.1c-0.1-0.1-0.1-0.2-0.1-0.3v-15.4c0-0.1,0-0.3,0.1-0.3
			c0.1-0.1,0.2-0.1,0.3-0.1h5c0.1,0,0.3,0,0.3,0.1c0.1,0.1,0.1,0.2,0.1,0.3v0.7c0,0.1,0,0.1,0.1,0.2c0.1,0,0.1,0,0.1-0.1
			c0.8-1,1.9-1.5,3.3-1.5c1.9,0,3.3,0.8,4.1,2.3c0,0.1,0.1,0.1,0.1,0.1c0.1,0,0.2-0.1,0.2-0.2c0.4-0.8,1-1.3,1.7-1.7
			c0.7-0.3,1.4-0.5,2.1-0.5C549.6,282.5,550.8,283,551.6,284z"/>
	</g>
</g>
</svg>
